<?xml version="1.0" encoding="UTF-8" standalone="no"?>
<!-- Created with Inkscape (http://www.inkscape.org/) -->

<svg
   version="1.1"
   id="svg1"
   width="1024"
   height="1024"
   viewBox="0 0 1024 1024"
   sodipodi:docname="Unseeny.svg"
   inkscape:version="1.4.3 (0d15f75, 2025-12-25)"
   xmlns:inkscape="http://www.inkscape.org/namespaces/inkscape"
   xmlns:sodipodi="http://sodipodi.sourceforge.net/DTD/sodipodi-0.dtd"
   xmlns="http://www.w3.org/2000/svg"
   xmlns:svg="http://www.w3.org/2000/svg">
  <defs
     id="defs1" />
  <sodipodi:namedview
     id="namedview1"
     pagecolor="#ffffff"
     bordercolor="#000000"
     borderopacity="0.25"
     inkscape:showpageshadow="2"
     inkscape:pageopacity="0.0"
     inkscape:pagecheckerboard="0"
     inkscape:deskcolor="#d1d1d1"
     inkscape:zoom="1.1845703"
     inkscape:cx="527.19538"
     inkscape:cy="480.76505"
     inkscape:window-width="2560"
     inkscape:window-height="1494"
     inkscape:window-x="1909"
     inkscape:window-y="-11"
     inkscape:window-maximized="1"
     inkscape:current-layer="g1" />
  <g
     inkscape:groupmode="layer"
     inkscape:label="Image"
     id="g1">
    <path
       style="fill:#212178;fill-opacity:1"
       d="m 511.97445,602.37085 c 0,-2.07482 8.62578,-18.31465 15.71043,-29.57816 25.47146,-40.49575 56.99596,-71.07948 114.28957,-110.8789 46.86456,-32.55481 84.96834,-70.88058 105.61716,-106.23251 10.60499,-18.15632 19.03852,-34.27897 17.93086,-34.27897 -0.18674,0 -1.83286,2.3625 -3.65805,5.25 -1.82519,2.8875 -4.5655,6.825 -6.08959,8.75 -1.52409,1.925 -4.46516,5.80944 -6.53572,8.63209 -11.00057,14.99631 -37.19342,41.78304 -60.78851,62.1668 -5.75058,4.96791 -33.51801,26.01056 -41.15646,31.18909 -5.16352,3.50064 -18.83968,13.05605 -37.81969,26.42428 -33.18984,23.37667 -61.77894,50.02562 -79.02057,73.65796 -2.98133,4.08638 -6.64516,9.11728 -8.14184,11.17978 -1.49669,2.0625 -3.00359,3.75 -3.34868,3.75 -1.69658,0 4.44703,-41.65487 8.57382,-58.1322 4.24081,-16.93254 13.53351,-41.15081 23.15702,-60.35091 25.89147,-51.65669 72.35916,-98.83646 127.03509,-128.98181 19.04205,-10.49876 42.51555,-20.48681 77.74516,-33.08081 16.77592,-5.99712 32.46805,-13.67713 39.27628,-19.22251 2.96711,-2.41674 5.52059,-4.24505 5.67441,-4.06292 0.15382,0.18214 1.01036,2.58116 1.90343,5.33116 9.3301,28.72989 9.38716,75.3391 0.13574,110.87988 -8.77855,33.72415 -21.18762,59.77902 -42.24685,88.70415 -17.92149,24.6154 -47.11013,52.55127 -77.1955,73.88229 -41.83324,29.66044 -103.81997,58.18809 -157.54751,72.50683 -5.5,1.46578 -10.7875,2.88929 -11.75,3.16334 -0.9625,0.27406 -1.75,-0.0265 -1.75,-0.66795 z m -21,-13.16452 C 411.23898,559.25101 358.71158,527.45169 314.32854,482.26747 300.70853,468.40161 298.94332,466.41092 289.6195,454.40231 c -3.6298,-4.675 -6.9692,-8.95 -7.4209,-9.5 -2.62365,-3.19464 -17.42228,-28.31573 -20.91276,-35.5 -12.47458,-25.67578 -20.12085,-52.58403 -23.34282,-82.14656 -1.59565,-14.64048 -0.77481,-45.90819 1.51877,-57.85344 2.06206,-10.73952 5.3468,-22 6.4175,-22 0.45108,0 2.56953,1.41565 4.70766,3.1459 3.3078,2.67678 16.40894,9.39451 29.3875,15.0687 1.925,0.84161 10.7,4.10183 19.5,7.24495 8.8,3.14311 17.35,6.31366 19,7.04567 1.65,0.732 7.5,3.12353 13,5.31451 24.51156,9.7644 50.8528,24.00485 70,37.84299 18.23546,13.1792 40.4433,33.57116 52.64166,48.33728 22.36774,27.07615 42.66764,66.97668 53.28208,104.72878 3.83477,13.63899 4.1382,18.54694 1.78469,28.86691 -1.11687,4.89737 -2.32805,11.49181 -2.69151,14.65431 -0.36346,3.1625 -0.96595,5.71856 -1.33888,5.68012 -0.37292,-0.0384 -3.7108,-4.20093 -7.4175,-9.25 -17.6109,-23.98862 -54.78644,-57.04735 -95.76054,-85.15605 -13.11901,-8.99979 -36.76378,-26.39955 -42.06882,-30.9577 -1.96285,-1.6865 -8.25238,-6.89137 -13.97673,-11.56637 -20.93985,-17.10131 -53.095,-52.28742 -62.96336,-68.89833 -2.32046,-3.90592 -4.3816,-7.10167 -4.58031,-7.10167 -1.42267,0 15.53776,31.94416 21.65395,40.78417 2.17506,3.14371 4.51279,6.56245 5.19496,7.5972 6.15011,9.32882 20.30647,26.10746 32.02292,37.95477 16.95508,17.14444 30.47668,28.46034 64.07299,53.62112 13.82942,10.35707 30.3194,23.24569 36.6444,28.64139 31.31854,26.71705 54.56065,53.68459 66.94627,77.67696 l 5.04648,9.77562 -2.33064,3.72438 c -1.28185,2.04842 -4.02266,7.21189 -6.09068,11.47439 -2.06802,4.2625 -4.0551,7.72081 -4.41574,7.68514 -0.36063,-0.0357 -3.13069,-0.99467 -6.15569,-2.13112 z M 621.85481,280.87976 c -41.64056,-42.71804 -59.22519,-49.61728 -67.47372,-56.92322 -24.31665,-21.5379 -24.242,-21.48336 -29.40664,-21.48336 -1.925,0 -4.45089,0.54655 -5.61309,1.21457 -2.4844,1.42798 -10.67742,8.08789 -14.58215,11.85347 -1.50503,1.4514 -4.66281,4.1514 -7.01727,6 -5.81563,4.56612 -8.45744,6.74227 -13.22779,10.8962 -4.96076,4.31974 -20.2724,17.18927 -26.13293,21.96489 -2.36231,1.925 -10.73724,8.74864 -18.61094,15.16364 -7.87371,6.415 -15.21583,12.49589 -16.31583,13.51307 -4.07107,3.76459 -23.51938,19.32329 -24.15402,19.32329 -0.36146,0 -2.04967,-1.02633 -3.75159,-2.28073 -4.24619,-3.12966 -19.26836,-12.14778 -23.84439,-14.31428 -2.0625,-0.97648 -3.75,-2.03546 -3.75,-2.3533 0,-0.31784 3.46479,-3.27199 7.69953,-6.56479 4.23474,-3.29279 9.80676,-7.7869 12.38226,-9.9869 2.57549,-2.2 11.55512,-9.625 19.95471,-16.5 17.43854,-14.2733 47.21733,-39.087 47.9635,-39.96642 0.48008,-0.56581 25.57,-21.27309 40.38111,-33.32744 3.91539,-3.18663 10.03443,-7.23663 13.59786,-9 5.8572,-2.89845 7.34471,-3.20463 15.5,-3.19041 7.59817,0.0132 9.901,0.42592 14.60011,2.61642 4.40193,2.05197 17.2538,11.63563 19.92092,14.85506 0.275,0.33195 5.76011,4.95964 12.18913,10.28375 6.42903,5.32412 14.07903,11.80465 17,14.40117 l 5.31087,4.72096 1,-6.95012 c 1.8503,-12.8598 3.02288,-13.44297 27.02997,-13.44297 20.23369,0 23.07325,0.63898 25.38482,5.71232 0.70007,1.5365 1.08521,12.60854 1.08521,31.19789 v 28.81611 l 4.80207,4.38684 c 2.64115,2.41276 9.84115,8.61375 16,13.77998 6.15886,5.16623 11.19413,9.66623 11.18949,10 -0.005,0.33377 -3.04214,2.18186 -6.75,4.10686 -3.70786,1.925 -9.43574,5.60175 -13.16658,7.34634 -52.47012,24.53568 -3.65227,20.59315 -39.19462,-15.86889 z M 495.37185,337.286 c -1.1456,-1.26358 -1.40342,-4.10063 -1.1814,-13 l 0.284,-11.38369 13.27923,-0.27923 13.27923,-0.27923 -0.27923,13.23276 -0.27923,13.23277 -11.8186,0.0465 c -9.65325,0.038 -12.08708,-0.24966 -13.284,-1.56984 z m 33.26927,1.44964 c -0.36667,-0.36666 -0.66667,-6.45472 -0.66667,-13.52902 v -12.86236 l 13.25,0.27902 13.25,0.27903 v 11.83257 c 0,14.8962 0.22654,14.66743 -14.52446,14.66743 -5.85322,0 -10.94221,-0.3 -11.30887,-0.66667 z m -33.41667,-33.99561 c -0.90084,-0.3635 -1.25,-3.79913 -1.25,-12.29973 v -11.79535 l 2.8933,-1.19844 c 1.8187,-0.75333 6.73986,-1.07695 13.25,-0.87132 l 10.3567,0.32712 0.27903,13.25 0.27902,13.25 -12.27902,-0.079 c -6.75347,-0.0434 -12.84153,-0.30592 -13.52903,-0.58333 z m 32.75,-12.20171 c 0,-10.86071 0.25233,-13.01886 1.58179,-13.52902 0.86998,-0.33385 6.25961,-0.60699 11.97694,-0.60699 13.45816,0 13.63077,0.20394 13.22634,15.628 l -0.28507,10.872 -13.25,0.27903 -13.25,0.27902 z"
       id="path1"
       sodipodi:nodetypes="ssssssssssssssssssssssssssscsssssssssssssssssssssssssssssscssscssssssssssssssssssssssssscsssscsscssssscccccssssscccssssscsscccssssssscccs"
       inkscape:export-filename="path2.png"
       inkscape:export-xdpi="96"
       inkscape:export-ydpi="96" />
    <text
       xml:space="preserve"
       style="font-size:169.333px;font-family:'Ink Free';-inkscape-font-specification:'Ink Free';writing-mode:lr-tb;direction:ltr;fill:#212178;fill-opacity:1"
       x="235.45845"
       y="731.06677"
       id="text2"
       inkscape:export-filename="text2.png"
       inkscape:export-xdpi="96"
       inkscape:export-ydpi="96"><tspan
         sodipodi:role="line"
         id="tspan2"
         x="235.45845"
         y="731.06677"
         style="font-size:169.333px">Unseeny</tspan></text>
  </g>
</svg>
